<mxfile host="app.diagrams.net" agent="Mozilla/5.0 (Macintosh; Intel Mac OS X 10_15_7) AppleWebKit/605.1.15 (KHTML, like Gecko) Version/18.0.1 Safari/605.1.15" version="24.8.4">
  <diagram name="第 1 页" id="Zgj4jbgKDDsiaTvhdfDO">
    <mxGraphModel dx="1023" dy="556" grid="1" gridSize="10" guides="1" tooltips="1" connect="1" arrows="1" fold="1" page="1" pageScale="1" pageWidth="827" pageHeight="1169" math="0" shadow="0">
      <root>
        <mxCell id="0" />
        <mxCell id="1" parent="0" />
        <mxCell id="3KvoZcAEGTlj6NSqMUgS-1" value="盘库页面" style="shape=umlLifeline;perimeter=lifelinePerimeter;whiteSpace=wrap;html=1;container=1;dropTarget=0;collapsible=0;recursiveResize=0;outlineConnect=0;portConstraint=eastwest;newEdgeStyle={&quot;curved&quot;:0,&quot;rounded&quot;:0};verticalAlign=middle;" parent="1" vertex="1">
          <mxGeometry x="122" y="60" width="100" height="1320" as="geometry" />
        </mxCell>
        <mxCell id="83ZU3x5r5UnPAUIIc8IS-38" value="" style="html=1;points=[[0,0,0,0,5],[0,1,0,0,-5],[1,0,0,0,5],[1,1,0,0,-5]];perimeter=orthogonalPerimeter;outlineConnect=0;targetShapes=umlLifeline;portConstraint=eastwest;newEdgeStyle={&quot;curved&quot;:0,&quot;rounded&quot;:0};" vertex="1" parent="3KvoZcAEGTlj6NSqMUgS-1">
          <mxGeometry x="46" y="1260" width="10" height="40" as="geometry" />
        </mxCell>
        <mxCell id="83ZU3x5r5UnPAUIIc8IS-39" value="保存盘库结果" style="html=1;align=left;spacingLeft=2;endArrow=block;rounded=0;edgeStyle=orthogonalEdgeStyle;curved=0;rounded=0;" edge="1" target="83ZU3x5r5UnPAUIIc8IS-38" parent="3KvoZcAEGTlj6NSqMUgS-1">
          <mxGeometry relative="1" as="geometry">
            <mxPoint x="51" y="1240" as="sourcePoint" />
            <Array as="points">
              <mxPoint x="81" y="1270" />
            </Array>
          </mxGeometry>
        </mxCell>
        <mxCell id="3KvoZcAEGTlj6NSqMUgS-2" value="盘库服务" style="shape=umlLifeline;perimeter=lifelinePerimeter;whiteSpace=wrap;html=1;container=1;dropTarget=0;collapsible=0;recursiveResize=0;outlineConnect=0;portConstraint=eastwest;newEdgeStyle={&quot;curved&quot;:0,&quot;rounded&quot;:0};verticalAlign=middle;" parent="1" vertex="1">
          <mxGeometry x="264" y="60" width="100" height="1320" as="geometry" />
        </mxCell>
        <mxCell id="3KvoZcAEGTlj6NSqMUgS-3" value="门磁传感器" style="shape=umlLifeline;perimeter=lifelinePerimeter;whiteSpace=wrap;html=1;container=1;dropTarget=0;collapsible=0;recursiveResize=0;outlineConnect=0;portConstraint=eastwest;newEdgeStyle={&quot;curved&quot;:0,&quot;rounded&quot;:0};verticalAlign=middle;" parent="1" vertex="1">
          <mxGeometry x="406" y="60" width="100" height="1320" as="geometry" />
        </mxCell>
        <mxCell id="3KvoZcAEGTlj6NSqMUgS-4" value="天线" style="shape=umlLifeline;perimeter=lifelinePerimeter;whiteSpace=wrap;html=1;container=1;dropTarget=0;collapsible=0;recursiveResize=0;outlineConnect=0;portConstraint=eastwest;newEdgeStyle={&quot;curved&quot;:0,&quot;rounded&quot;:0};verticalAlign=middle;" parent="1" vertex="1">
          <mxGeometry x="548" y="60" width="100" height="1320" as="geometry" />
        </mxCell>
        <mxCell id="3KvoZcAEGTlj6NSqMUgS-5" value="bicycle" style="shape=umlLifeline;perimeter=lifelinePerimeter;whiteSpace=wrap;html=1;container=1;dropTarget=0;collapsible=0;recursiveResize=0;outlineConnect=0;portConstraint=eastwest;newEdgeStyle={&quot;curved&quot;:0,&quot;rounded&quot;:0};verticalAlign=middle;" parent="1" vertex="1">
          <mxGeometry x="690" y="60" width="100" height="1320" as="geometry" />
        </mxCell>
        <mxCell id="3KvoZcAEGTlj6NSqMUgS-6" value="" style="shape=umlLifeline;perimeter=lifelinePerimeter;whiteSpace=wrap;html=1;container=1;dropTarget=0;collapsible=0;recursiveResize=0;outlineConnect=0;portConstraint=eastwest;newEdgeStyle={&quot;curved&quot;:0,&quot;rounded&quot;:0};participant=umlActor;verticalAlign=middle;" parent="1" vertex="1">
          <mxGeometry x="20" y="60" width="20" height="1310" as="geometry" />
        </mxCell>
        <mxCell id="3KvoZcAEGTlj6NSqMUgS-7" value="开始盘点" style="html=1;verticalAlign=bottom;endArrow=block;curved=0;rounded=0;" parent="1" edge="1">
          <mxGeometry x="0.0035" width="80" relative="1" as="geometry">
            <mxPoint x="30" y="150" as="sourcePoint" />
            <mxPoint x="170" y="150" as="targetPoint" />
            <mxPoint as="offset" />
          </mxGeometry>
        </mxCell>
        <mxCell id="3KvoZcAEGTlj6NSqMUgS-18" value="手持机" style="shape=umlLifeline;perimeter=lifelinePerimeter;whiteSpace=wrap;html=1;container=1;dropTarget=0;collapsible=0;recursiveResize=0;outlineConnect=0;portConstraint=eastwest;newEdgeStyle={&quot;curved&quot;:0,&quot;rounded&quot;:0};verticalAlign=middle;" parent="1" vertex="1">
          <mxGeometry x="825" y="60" width="100" height="1320" as="geometry" />
        </mxCell>
        <mxCell id="83ZU3x5r5UnPAUIIc8IS-1" value="检测门是否全部关闭" style="html=1;verticalAlign=bottom;endArrow=block;curved=0;rounded=0;" edge="1" parent="1">
          <mxGeometry width="80" relative="1" as="geometry">
            <mxPoint x="173" y="170" as="sourcePoint" />
            <mxPoint x="313" y="170" as="targetPoint" />
            <mxPoint as="offset" />
          </mxGeometry>
        </mxCell>
        <mxCell id="83ZU3x5r5UnPAUIIc8IS-2" value="获取门磁状态" style="html=1;verticalAlign=bottom;endArrow=block;curved=0;rounded=0;" edge="1" parent="1">
          <mxGeometry width="80" relative="1" as="geometry">
            <mxPoint x="316" y="180" as="sourcePoint" />
            <mxPoint x="456" y="180" as="targetPoint" />
            <mxPoint as="offset" />
          </mxGeometry>
        </mxCell>
        <mxCell id="83ZU3x5r5UnPAUIIc8IS-3" value="有开门状态" style="html=1;verticalAlign=bottom;endArrow=open;dashed=1;endSize=8;curved=0;rounded=0;" edge="1" parent="1">
          <mxGeometry relative="1" as="geometry">
            <mxPoint x="460" y="205" as="sourcePoint" />
            <mxPoint x="313.5" y="205" as="targetPoint" />
          </mxGeometry>
        </mxCell>
        <mxCell id="83ZU3x5r5UnPAUIIc8IS-4" value="提示关门" style="html=1;verticalAlign=bottom;endArrow=open;dashed=1;endSize=8;curved=0;rounded=0;" edge="1" parent="1">
          <mxGeometry x="-0.0034" relative="1" as="geometry">
            <mxPoint x="316.5" y="230" as="sourcePoint" />
            <mxPoint x="170" y="230" as="targetPoint" />
            <mxPoint as="offset" />
          </mxGeometry>
        </mxCell>
        <mxCell id="83ZU3x5r5UnPAUIIc8IS-5" value="请关门" style="html=1;verticalAlign=bottom;endArrow=open;dashed=1;endSize=8;curved=0;rounded=0;" edge="1" parent="1">
          <mxGeometry x="-0.0034" relative="1" as="geometry">
            <mxPoint x="176.5" y="250" as="sourcePoint" />
            <mxPoint x="30" y="250" as="targetPoint" />
            <mxPoint as="offset" />
          </mxGeometry>
        </mxCell>
        <mxCell id="83ZU3x5r5UnPAUIIc8IS-6" value="&lt;b&gt;门未关好&lt;/b&gt;" style="shape=umlFrame;whiteSpace=wrap;html=1;pointerEvents=0;" vertex="1" parent="1">
          <mxGeometry x="20" y="188" width="450" height="82" as="geometry" />
        </mxCell>
        <mxCell id="83ZU3x5r5UnPAUIIc8IS-7" value="全部关上" style="html=1;verticalAlign=bottom;endArrow=open;dashed=1;endSize=8;curved=0;rounded=0;" edge="1" parent="1">
          <mxGeometry x="-0.0034" relative="1" as="geometry">
            <mxPoint x="456.5" y="320" as="sourcePoint" />
            <mxPoint x="310" y="320" as="targetPoint" />
            <mxPoint as="offset" />
          </mxGeometry>
        </mxCell>
        <mxCell id="83ZU3x5r5UnPAUIIc8IS-8" value="开启事务，获取盘点数据" style="html=1;verticalAlign=bottom;endArrow=block;curved=0;rounded=0;" edge="1" parent="1" target="3KvoZcAEGTlj6NSqMUgS-5">
          <mxGeometry width="80" relative="1" as="geometry">
            <mxPoint x="310" y="360" as="sourcePoint" />
            <mxPoint x="450" y="360" as="targetPoint" />
            <mxPoint as="offset" />
          </mxGeometry>
        </mxCell>
        <mxCell id="83ZU3x5r5UnPAUIIc8IS-9" value="返回数据" style="html=1;verticalAlign=bottom;endArrow=open;dashed=1;endSize=8;curved=0;rounded=0;" edge="1" parent="1" target="3KvoZcAEGTlj6NSqMUgS-2">
          <mxGeometry x="-0.0034" relative="1" as="geometry">
            <mxPoint x="736.5" y="390" as="sourcePoint" />
            <mxPoint x="590" y="390" as="targetPoint" />
            <mxPoint as="offset" />
          </mxGeometry>
        </mxCell>
        <mxCell id="83ZU3x5r5UnPAUIIc8IS-10" value="展示在页面上" style="html=1;verticalAlign=bottom;endArrow=open;dashed=1;endSize=8;curved=0;rounded=0;" edge="1" parent="1">
          <mxGeometry x="-0.0034" relative="1" as="geometry">
            <mxPoint x="310" y="410" as="sourcePoint" />
            <mxPoint x="170" y="410" as="targetPoint" />
            <mxPoint as="offset" />
          </mxGeometry>
        </mxCell>
        <mxCell id="83ZU3x5r5UnPAUIIc8IS-11" value="读取epc" style="html=1;verticalAlign=bottom;endArrow=block;curved=0;rounded=0;" edge="1" parent="1">
          <mxGeometry width="80" relative="1" as="geometry">
            <mxPoint x="310" y="440" as="sourcePoint" />
            <mxPoint x="600" y="440" as="targetPoint" />
            <mxPoint as="offset" />
          </mxGeometry>
        </mxCell>
        <mxCell id="83ZU3x5r5UnPAUIIc8IS-12" value="返回数据" style="html=1;verticalAlign=bottom;endArrow=open;dashed=1;endSize=8;curved=0;rounded=0;" edge="1" parent="1">
          <mxGeometry x="-0.0034" relative="1" as="geometry">
            <mxPoint x="599.75" y="480" as="sourcePoint" />
            <mxPoint x="312.25" y="480" as="targetPoint" />
            <mxPoint as="offset" />
          </mxGeometry>
        </mxCell>
        <mxCell id="83ZU3x5r5UnPAUIIc8IS-13" value="实时显示盘点结果" style="html=1;verticalAlign=bottom;endArrow=open;dashed=1;endSize=8;curved=0;rounded=0;" edge="1" parent="1">
          <mxGeometry x="-0.0034" relative="1" as="geometry">
            <mxPoint x="310" y="510" as="sourcePoint" />
            <mxPoint x="170" y="510" as="targetPoint" />
            <mxPoint as="offset" />
          </mxGeometry>
        </mxCell>
        <mxCell id="83ZU3x5r5UnPAUIIc8IS-14" value="&lt;b&gt;取消事务&lt;/b&gt;" style="shape=umlFrame;whiteSpace=wrap;html=1;pointerEvents=0;" vertex="1" parent="1">
          <mxGeometry x="20" y="520" width="640" height="180" as="geometry" />
        </mxCell>
        <mxCell id="83ZU3x5r5UnPAUIIc8IS-15" value="取消盘点" style="html=1;verticalAlign=bottom;endArrow=block;curved=0;rounded=0;" edge="1" parent="1">
          <mxGeometry x="0.0035" width="80" relative="1" as="geometry">
            <mxPoint x="30" y="570" as="sourcePoint" />
            <mxPoint x="170" y="570" as="targetPoint" />
            <mxPoint as="offset" />
          </mxGeometry>
        </mxCell>
        <mxCell id="83ZU3x5r5UnPAUIIc8IS-16" value="取消盘点" style="html=1;verticalAlign=bottom;endArrow=block;curved=0;rounded=0;" edge="1" parent="1">
          <mxGeometry x="0.0035" width="80" relative="1" as="geometry">
            <mxPoint x="173" y="590" as="sourcePoint" />
            <mxPoint x="313" y="590" as="targetPoint" />
            <mxPoint as="offset" />
          </mxGeometry>
        </mxCell>
        <mxCell id="83ZU3x5r5UnPAUIIc8IS-17" value="关闭天线" style="html=1;verticalAlign=bottom;endArrow=block;curved=0;rounded=0;" edge="1" parent="1" target="3KvoZcAEGTlj6NSqMUgS-4">
          <mxGeometry x="0.0035" width="80" relative="1" as="geometry">
            <mxPoint x="315" y="609.5" as="sourcePoint" />
            <mxPoint x="455" y="609.5" as="targetPoint" />
            <mxPoint as="offset" />
          </mxGeometry>
        </mxCell>
        <mxCell id="83ZU3x5r5UnPAUIIc8IS-18" value="关闭" style="html=1;verticalAlign=bottom;endArrow=open;dashed=1;endSize=8;curved=0;rounded=0;" edge="1" parent="1" target="3KvoZcAEGTlj6NSqMUgS-2">
          <mxGeometry x="-0.0034" relative="1" as="geometry">
            <mxPoint x="596.5" y="650" as="sourcePoint" />
            <mxPoint x="450" y="650" as="targetPoint" />
            <mxPoint as="offset" />
          </mxGeometry>
        </mxCell>
        <mxCell id="83ZU3x5r5UnPAUIIc8IS-19" value="取消盘库" style="html=1;verticalAlign=bottom;endArrow=open;dashed=1;endSize=8;curved=0;rounded=0;" edge="1" parent="1">
          <mxGeometry x="-0.0034" relative="1" as="geometry">
            <mxPoint x="320" y="660" as="sourcePoint" />
            <mxPoint x="172.75" y="660" as="targetPoint" />
            <mxPoint as="offset" />
          </mxGeometry>
        </mxCell>
        <mxCell id="83ZU3x5r5UnPAUIIc8IS-20" value="&lt;b&gt;提前100%&lt;/b&gt;" style="shape=umlFrame;whiteSpace=wrap;html=1;pointerEvents=0;" vertex="1" parent="1">
          <mxGeometry x="20" y="720" width="640" height="180" as="geometry" />
        </mxCell>
        <mxCell id="83ZU3x5r5UnPAUIIc8IS-21" value="" style="html=1;points=[[0,0,0,0,5],[0,1,0,0,-5],[1,0,0,0,5],[1,1,0,0,-5]];perimeter=orthogonalPerimeter;outlineConnect=0;targetShapes=umlLifeline;portConstraint=eastwest;newEdgeStyle={&quot;curved&quot;:0,&quot;rounded&quot;:0};" vertex="1" parent="1">
          <mxGeometry x="166" y="770" width="10" height="40" as="geometry" />
        </mxCell>
        <mxCell id="83ZU3x5r5UnPAUIIc8IS-22" value="盘点数量100%" style="html=1;align=left;spacingLeft=2;endArrow=block;rounded=0;edgeStyle=orthogonalEdgeStyle;curved=0;rounded=0;" edge="1" target="83ZU3x5r5UnPAUIIc8IS-21" parent="1">
          <mxGeometry relative="1" as="geometry">
            <mxPoint x="171" y="750" as="sourcePoint" />
            <Array as="points">
              <mxPoint x="201" y="780" />
            </Array>
          </mxGeometry>
        </mxCell>
        <mxCell id="83ZU3x5r5UnPAUIIc8IS-23" value="结束盘点" style="html=1;verticalAlign=bottom;endArrow=block;curved=0;rounded=0;" edge="1" parent="1">
          <mxGeometry x="0.0035" width="80" relative="1" as="geometry">
            <mxPoint x="176" y="800" as="sourcePoint" />
            <mxPoint x="310" y="800" as="targetPoint" />
            <mxPoint as="offset" />
          </mxGeometry>
        </mxCell>
        <mxCell id="83ZU3x5r5UnPAUIIc8IS-24" value="关闭天线" style="html=1;verticalAlign=bottom;endArrow=block;curved=0;rounded=0;" edge="1" parent="1">
          <mxGeometry x="0.0035" width="80" relative="1" as="geometry">
            <mxPoint x="314" y="820" as="sourcePoint" />
            <mxPoint x="597" y="820.5" as="targetPoint" />
            <mxPoint as="offset" />
          </mxGeometry>
        </mxCell>
        <mxCell id="83ZU3x5r5UnPAUIIc8IS-25" value="关闭" style="html=1;verticalAlign=bottom;endArrow=open;dashed=1;endSize=8;curved=0;rounded=0;" edge="1" parent="1">
          <mxGeometry x="-0.0034" relative="1" as="geometry">
            <mxPoint x="597.25" y="850" as="sourcePoint" />
            <mxPoint x="314.75" y="850" as="targetPoint" />
            <mxPoint as="offset" />
          </mxGeometry>
        </mxCell>
        <mxCell id="83ZU3x5r5UnPAUIIc8IS-26" value="结束盘库" style="html=1;verticalAlign=bottom;endArrow=open;dashed=1;endSize=8;curved=0;rounded=0;" edge="1" parent="1">
          <mxGeometry x="-0.0045" relative="1" as="geometry">
            <mxPoint x="310" y="870" as="sourcePoint" />
            <mxPoint x="171.38" y="870" as="targetPoint" />
            <mxPoint as="offset" />
          </mxGeometry>
        </mxCell>
        <mxCell id="83ZU3x5r5UnPAUIIc8IS-27" value="盘库完成，关闭天线" style="html=1;verticalAlign=bottom;endArrow=block;curved=0;rounded=0;" edge="1" parent="1" target="3KvoZcAEGTlj6NSqMUgS-4">
          <mxGeometry x="0.0035" width="80" relative="1" as="geometry">
            <mxPoint x="310" y="940" as="sourcePoint" />
            <mxPoint x="444" y="940" as="targetPoint" />
            <mxPoint as="offset" />
          </mxGeometry>
        </mxCell>
        <mxCell id="83ZU3x5r5UnPAUIIc8IS-28" value="显示补扫信息" style="html=1;verticalAlign=bottom;endArrow=open;dashed=1;endSize=8;curved=0;rounded=0;" edge="1" parent="1">
          <mxGeometry x="-0.0045" relative="1" as="geometry">
            <mxPoint x="314.31" y="970" as="sourcePoint" />
            <mxPoint x="175.69" y="970" as="targetPoint" />
            <mxPoint as="offset" />
          </mxGeometry>
        </mxCell>
        <mxCell id="83ZU3x5r5UnPAUIIc8IS-29" value="通知补扫信息" style="html=1;verticalAlign=bottom;endArrow=block;curved=0;rounded=0;" edge="1" parent="1" target="3KvoZcAEGTlj6NSqMUgS-5">
          <mxGeometry x="0.0035" width="80" relative="1" as="geometry">
            <mxPoint x="312" y="1000" as="sourcePoint" />
            <mxPoint x="600" y="1000" as="targetPoint" />
            <mxPoint as="offset" />
          </mxGeometry>
        </mxCell>
        <mxCell id="83ZU3x5r5UnPAUIIc8IS-30" value="通知补扫信息" style="html=1;verticalAlign=bottom;endArrow=block;curved=0;rounded=0;" edge="1" parent="1">
          <mxGeometry x="0.0035" width="80" relative="1" as="geometry">
            <mxPoint x="740" y="1040" as="sourcePoint" />
            <mxPoint x="874" y="1040" as="targetPoint" />
            <mxPoint as="offset" />
          </mxGeometry>
        </mxCell>
        <mxCell id="83ZU3x5r5UnPAUIIc8IS-32" value="手工补扫" style="html=1;verticalAlign=bottom;endArrow=block;curved=0;rounded=0;" edge="1" parent="1" target="3KvoZcAEGTlj6NSqMUgS-18">
          <mxGeometry x="0.0035" width="80" relative="1" as="geometry">
            <mxPoint x="31" y="1100" as="sourcePoint" />
            <mxPoint x="459" y="1100" as="targetPoint" />
            <mxPoint as="offset" />
          </mxGeometry>
        </mxCell>
        <mxCell id="83ZU3x5r5UnPAUIIc8IS-33" value="返回补扫epc" style="html=1;verticalAlign=bottom;endArrow=open;dashed=1;endSize=8;curved=0;rounded=0;" edge="1" parent="1">
          <mxGeometry x="-0.0045" relative="1" as="geometry">
            <mxPoint x="878.6199999999999" y="1130" as="sourcePoint" />
            <mxPoint x="740" y="1130" as="targetPoint" />
            <mxPoint as="offset" />
          </mxGeometry>
        </mxCell>
        <mxCell id="83ZU3x5r5UnPAUIIc8IS-34" value="返回补扫epc" style="html=1;verticalAlign=bottom;endArrow=open;dashed=1;endSize=8;curved=0;rounded=0;" edge="1" parent="1" target="3KvoZcAEGTlj6NSqMUgS-2">
          <mxGeometry x="-0.0045" relative="1" as="geometry">
            <mxPoint x="738.6199999999999" y="1168" as="sourcePoint" />
            <mxPoint x="600" y="1168" as="targetPoint" />
            <mxPoint as="offset" />
          </mxGeometry>
        </mxCell>
        <mxCell id="83ZU3x5r5UnPAUIIc8IS-35" value="未扫描数量-1" style="html=1;verticalAlign=bottom;endArrow=open;dashed=1;endSize=8;curved=0;rounded=0;" edge="1" parent="1" source="3KvoZcAEGTlj6NSqMUgS-2">
          <mxGeometry x="-0.0045" relative="1" as="geometry">
            <mxPoint x="600.6199999999999" y="1200" as="sourcePoint" />
            <mxPoint x="176" y="1200" as="targetPoint" />
            <mxPoint as="offset" />
          </mxGeometry>
        </mxCell>
        <mxCell id="83ZU3x5r5UnPAUIIc8IS-36" value="盘点结束" style="html=1;verticalAlign=bottom;endArrow=block;curved=0;rounded=0;" edge="1" parent="1">
          <mxGeometry x="0.0035" width="80" relative="1" as="geometry">
            <mxPoint x="32" y="1240" as="sourcePoint" />
            <mxPoint x="172" y="1240" as="targetPoint" />
            <mxPoint as="offset" />
          </mxGeometry>
        </mxCell>
        <mxCell id="83ZU3x5r5UnPAUIIc8IS-37" value="盘点结束" style="html=1;verticalAlign=bottom;endArrow=block;curved=0;rounded=0;" edge="1" parent="1">
          <mxGeometry x="0.0035" width="80" relative="1" as="geometry">
            <mxPoint x="175" y="1270" as="sourcePoint" />
            <mxPoint x="315" y="1270" as="targetPoint" />
            <mxPoint as="offset" />
          </mxGeometry>
        </mxCell>
      </root>
    </mxGraphModel>
  </diagram>
</mxfile>
